<svg width="167" height="165" viewBox="0 0 167 165" fill="none" xmlns="http://www.w3.org/2000/svg">
<g opacity="0.1">
<path fill-rule="evenodd" clip-rule="evenodd" d="M83.6148 164.918C126.283 165.636 161.483 135.082 159.812 88.9199C159.744 87.0421 157.783 85.862 155.942 86.195C154.989 86.3673 154.007 86.4572 153.005 86.4572C143.914 86.4572 136.543 79.056 136.543 69.926C136.543 68.8179 136.652 67.7352 136.859 66.6881C136.924 66.3596 136.674 66.0482 136.34 66.0482C121.861 66.0482 110.123 54.261 110.123 39.7207C110.123 30.3246 115.025 22.078 122.4 17.4191C124.244 16.2549 124.551 13.4588 122.691 12.3229C110.239 4.72024 94.9636 0.368106 77.3891 0.331543C36.936 0.437621 -4.56874 41.4222 0.859337 86.5976C0.877147 86.7458 0.883505 86.8974 0.877909 87.0466C0.0560244 108.957 7.61908 128.611 21.6036 142.702C23.1905 144.301 25.9785 143.195 26.8449 141.112C29.328 135.143 35.1968 130.949 42.0412 130.949C51.1327 130.949 58.5029 138.35 58.5029 147.48C58.5029 151.038 57.3835 154.333 55.4791 157.031C54.1874 158.86 54.7246 161.791 56.8923 162.331C65.0937 164.371 74.0372 165.294 83.6148 164.918Z" fill="#6B6B6B"/>
<path d="M53.197 86.4405C53.197 83.2946 50.4617 81.1119 47.5009 81.1119C44.5401 81.1119 41.8048 84.2133 41.8048 87.3592C41.8048 90.505 44.5401 92.504 47.5009 92.504C50.4617 92.504 53.197 89.5863 53.197 86.4405Z" fill="#6B6B6B"/>
<path fill-rule="evenodd" clip-rule="evenodd" d="M41.3329 85.8284C41.3329 88.907 44.0097 90.9046 46.9831 90.9046C48.4319 90.9046 49.8443 90.1892 50.9 89.0647C51.9551 87.9408 52.6334 86.429 52.6334 84.8716C52.6334 81.7808 49.9425 79.6041 46.9831 79.6041C45.5404 79.6041 44.1286 80.3619 43.0701 81.5355C42.0124 82.7084 41.3329 84.2697 41.3329 85.8284ZM46.9831 91.4683C43.7896 91.4683 40.7692 89.3022 40.7692 85.8284C40.7692 84.111 41.5141 82.4192 42.6515 81.158C43.7882 79.8977 45.3424 79.0404 46.9831 79.0404C50.1908 79.0404 53.197 81.4101 53.197 84.8716C53.197 86.5905 52.451 88.2361 51.311 89.4505C50.1714 90.6643 48.6179 91.4683 46.9831 91.4683Z" fill="#6B6B6B"/>
<path d="M74.9647 97.7345C76.6718 98.7565 78.7808 97.9215 79.7814 96.2501C80.7821 94.5787 80.0235 92.027 78.3163 91.005C76.6092 89.9829 74.6 90.8776 73.5994 92.549C72.5987 94.2205 73.2576 96.7125 74.9647 97.7345Z" fill="#6B6B6B"/>
<path fill-rule="evenodd" clip-rule="evenodd" d="M77.8669 91.018C76.4919 90.1948 74.7413 91.0774 73.7915 92.664C73.3258 93.4419 73.1988 94.3886 73.3665 95.2488C73.5342 96.1092 73.9945 96.8715 74.6888 97.2872C76.0676 98.1127 77.9022 97.2732 78.8489 95.6918C79.3134 94.9161 79.4206 93.958 79.232 93.084C79.0434 92.2099 78.5618 91.434 77.8669 91.018ZM73.5994 92.549C74.5862 90.9007 76.467 89.8978 77.9913 90.8103C78.746 91.2622 79.2565 92.0952 79.4555 93.0173C79.6545 93.9396 79.5449 94.9652 79.041 95.8069C78.051 97.4604 76.0848 98.4051 74.5644 97.4949C73.8091 97.0426 73.3196 96.2215 73.1421 95.311C72.9645 94.4003 73.0967 93.3886 73.5994 92.549Z" fill="#6B6B6B"/>
<path d="M122.361 128.754C119.806 127.884 117.298 129.44 116.503 131.777C115.707 134.115 117.491 137.131 120.046 138.001C122.601 138.871 124.96 137.265 125.756 134.927C126.551 132.59 124.917 129.624 122.361 128.754Z" fill="#6B6B6B"/>
<path d="M29.4985 147.528C28.0912 149.831 29.0611 152.618 31.1679 153.905C33.2747 155.193 36.6085 154.111 38.0158 151.808C39.4231 149.504 38.371 146.852 36.2642 145.564C34.1574 144.277 30.9058 145.224 29.4985 147.528Z" fill="#6B6B6B"/>
<path d="M160.457 59.5505C157.144 56.0681 151.902 56.4517 148.717 59.4824C145.531 62.5131 145.855 68.7462 149.169 72.2285C152.482 75.7109 157.53 75.1239 160.715 72.0932C163.901 69.0625 163.77 63.0328 160.457 59.5505Z" fill="#6B6B6B"/>
<path fill-rule="evenodd" clip-rule="evenodd" d="M38.3983 152.683C39.7092 150.537 38.7465 148.042 36.7373 146.815C35.7633 146.22 34.5064 146.132 33.3108 146.479C32.1163 146.826 31.0113 147.6 30.3472 148.687C29.0299 150.843 29.9283 153.469 31.9259 154.69C32.8949 155.282 34.169 155.34 35.3883 154.96C36.6061 154.579 37.7334 153.771 38.3983 152.683ZM37.0222 146.349C39.2267 147.696 40.3682 150.506 38.8645 152.968C38.122 154.183 36.8788 155.067 35.5512 155.481C34.2251 155.895 32.7789 155.851 31.641 155.156C29.425 153.802 28.3836 150.853 29.8809 148.402C30.6241 147.186 31.8485 146.335 33.1584 145.955C34.4671 145.574 35.8894 145.657 37.0222 146.349Z" fill="#6B6B6B"/>
<path d="M39.3898 138.789C38.5431 140.175 39.1266 141.852 40.3942 142.627C41.6617 143.401 44.0407 143.667 44.8874 142.282C45.7341 140.896 44.7278 138.383 43.4603 137.608C42.1927 136.834 40.2365 137.404 39.3898 138.789Z" fill="#6B6B6B"/>
<path d="M156.401 61.9997C155.844 61.4141 154.963 61.4786 154.427 61.9883C153.891 62.4979 153.457 63.6073 154.014 64.1929C154.571 64.7784 155.909 64.6184 156.445 64.1088C156.98 63.5992 156.958 62.5853 156.401 61.9997Z" fill="#6B6B6B"/>
<path fill-rule="evenodd" clip-rule="evenodd" d="M45.2005 140.821C44.909 139.96 44.3719 139.202 43.8104 138.859C43.256 138.52 42.5328 138.466 41.836 138.668C41.1403 138.87 40.4993 139.321 40.1155 139.949C39.3588 141.187 39.8708 142.703 41.0292 143.411C41.6178 143.77 42.4788 144.018 43.288 144.008C44.1011 143.999 44.7932 143.735 45.1468 143.156C45.5093 142.563 45.4929 141.684 45.2005 140.821ZM45.718 140.645C46.0339 141.578 46.0973 142.649 45.613 143.441C45.1199 144.248 44.1992 144.544 43.2943 144.555C42.3855 144.565 41.4232 144.292 40.7443 143.877C39.3675 143.036 38.7125 141.197 39.6492 139.664C40.1121 138.907 40.8725 138.379 41.6836 138.144C42.4935 137.908 43.3821 137.957 44.0953 138.392C44.8013 138.824 45.4011 139.709 45.718 140.645Z" fill="#6B6B6B"/>
<path fill-rule="evenodd" clip-rule="evenodd" d="M154.668 64.3952C155.099 64.3672 155.498 64.2135 155.704 64.0171C155.905 63.8264 156.014 63.5261 156.008 63.1947C156.001 62.8644 155.878 62.5321 155.651 62.2942C155.213 61.8338 154.506 61.871 154.063 62.2924C153.834 62.5108 153.617 62.8699 153.523 63.236C153.429 63.6057 153.474 63.9149 153.66 64.1108C153.858 64.319 154.233 64.4233 154.668 64.3952ZM154.703 64.9404C154.195 64.9732 153.623 64.8648 153.264 64.4874C152.893 64.0977 152.877 63.5594 152.994 63.1006C153.112 62.6382 153.381 62.1878 153.687 61.8966C154.315 61.2987 155.371 61.2069 156.047 61.9176C156.378 62.2653 156.544 62.7328 156.554 63.1832C156.563 63.6325 156.416 64.094 156.081 64.4129C155.752 64.7261 155.214 64.9073 154.703 64.9404Z" fill="#6B6B6B"/>
<path d="M89.3517 24.2772C88.0037 23.8183 86.6739 24.6588 86.2468 25.9133C85.8198 27.1678 86.7543 28.7791 88.1023 29.238C89.4503 29.6969 90.7014 28.8296 91.1284 27.5751C91.5555 26.3206 90.6997 24.7361 89.3517 24.2772Z" fill="#6B6B6B"/>
<path d="M131.86 126.343C130.412 125.937 128.879 126.936 128.307 128.322C127.734 129.708 128.631 131.39 130.079 131.796C131.526 132.201 132.974 131.179 133.547 129.792C134.12 128.406 133.307 126.749 131.86 126.343Z" fill="#6B6B6B"/>
<path d="M16.363 67.1612C15.3555 69.0326 16.2603 71.4569 17.9964 72.6757C19.7324 73.8944 22.3295 73.1754 23.3369 71.304C24.3444 69.4326 23.3808 67.1175 21.6447 65.8987C19.9087 64.68 17.3705 65.2898 16.363 67.1612Z" fill="#6B6B6B"/>
<path fill-rule="evenodd" clip-rule="evenodd" d="M22.0213 70.9237C22.9316 69.2327 22.0851 67.0827 20.4232 65.916C19.6242 65.3551 18.6283 65.2079 17.7057 65.4288C16.783 65.6497 15.9586 66.2327 15.4945 67.0948C14.5788 68.7958 15.3831 71.053 17.0338 72.2118C17.8282 72.7695 18.8359 72.8932 19.7757 72.6456C20.7155 72.3981 21.5565 71.7871 22.0213 70.9237ZM20.6821 65.4349C22.4923 66.7056 23.573 69.1858 22.4684 71.2376C21.9258 72.2456 20.9644 72.9299 19.9199 73.205C18.8753 73.4801 17.7164 73.354 16.7748 72.6929C14.9533 71.4142 13.9481 68.8227 15.0473 66.7809C15.5907 65.7716 16.5392 65.114 17.5715 64.8669C18.6038 64.6198 19.745 64.777 20.6821 65.4349Z" fill="#6B6B6B"/>
<path fill-rule="evenodd" clip-rule="evenodd" d="M120.682 137.876C122.715 138.568 124.757 136.929 125.552 134.594C125.942 133.449 125.841 132.178 125.378 131.102C124.915 130.025 124.097 129.158 123.07 128.808C121.031 128.114 118.867 129.721 118.074 132.048C117.685 133.19 117.816 134.471 118.31 135.559C118.804 136.648 119.654 137.527 120.682 137.876ZM125.836 134.691C125.01 137.117 122.831 138.949 120.578 138.182C119.462 137.802 118.558 136.857 118.036 135.708C117.515 134.56 117.368 133.19 117.79 131.952C118.619 129.518 120.926 127.737 123.174 128.503C124.291 128.883 125.164 129.819 125.654 130.958C126.144 132.097 126.257 133.455 125.836 134.691Z" fill="#6B6B6B"/>
<path fill-rule="evenodd" clip-rule="evenodd" d="M88.4049 29.158C89.4962 29.5295 90.5925 28.6497 91.0192 27.3962C91.2284 26.7817 91.174 26.0994 90.9255 25.5217C90.677 24.9439 90.2379 24.4785 89.6869 24.2909C88.5925 23.9183 87.4307 24.7805 87.0054 26.0298C86.7968 26.6427 86.8668 27.33 87.132 27.9142C87.3972 28.4985 87.8535 28.9703 88.4049 29.158ZM91.1717 27.4481C90.7284 28.7503 89.5588 29.7339 88.3491 29.3221C87.7501 29.1181 87.2649 28.6107 86.9851 27.9944C86.7052 27.3778 86.6266 26.6429 86.8529 25.9779C87.2977 24.6715 88.5361 23.7161 89.7427 24.1268C90.3422 24.3309 90.8108 24.8332 91.0738 25.4446C91.3368 26.0562 91.3975 26.7848 91.1717 27.4481Z" fill="#6B6B6B"/>
<path fill-rule="evenodd" clip-rule="evenodd" d="M130.347 131.122C131.672 131.493 133.002 130.614 133.52 129.36C133.774 128.746 133.708 128.063 133.406 127.486C133.105 126.908 132.572 126.442 131.903 126.255C130.575 125.882 129.165 126.744 128.649 127.994C128.396 128.607 128.481 129.294 128.803 129.878C129.125 130.462 129.678 130.934 130.347 131.122ZM133.705 129.412C133.167 130.714 131.748 131.698 130.28 131.286C129.553 131.082 128.964 130.575 128.624 129.958C128.285 129.342 128.189 128.607 128.464 127.942C129.004 126.635 130.507 125.68 131.971 126.091C132.698 126.295 133.267 126.797 133.586 127.408C133.905 128.02 133.979 128.749 133.705 129.412Z" fill="#6B6B6B"/>
<path fill-rule="evenodd" clip-rule="evenodd" d="M57.0018 119.187C55.6025 119.016 53.4411 118.869 50.1064 119.195L50.0902 118.591C53.4378 118.262 55.6113 118.41 57.022 118.583C57.4093 118.63 57.7303 118.678 58.0036 118.719C58.2359 118.753 58.4337 118.783 58.6083 118.802C58.7932 118.823 58.938 118.831 59.0525 118.821C59.1682 118.81 59.2421 118.782 59.2904 118.744L59.4111 119.304C59.3137 119.381 59.198 119.414 59.0675 119.426C58.9357 119.438 58.7774 119.428 58.5896 119.407C58.4213 119.388 58.2173 119.358 57.9788 119.322C57.6996 119.281 57.3731 119.233 57.0018 119.187Z" fill="#6B6B6B"/>
<path fill-rule="evenodd" clip-rule="evenodd" d="M50.2089 118.551C53.4721 118.29 55.594 118.407 56.9739 118.545C57.352 118.582 57.6654 118.62 57.9308 118.653L57.9312 118.653C58.1577 118.68 58.3473 118.703 58.5141 118.719C58.6917 118.735 58.8216 118.74 58.9193 118.733C59.0171 118.726 59.0611 118.707 59.081 118.695C59.1166 118.672 59.1642 118.666 59.2069 118.678C59.2495 118.691 59.2813 118.72 59.2908 118.756L59.4081 119.2C59.4187 119.241 59.4004 119.282 59.3609 119.307C59.2393 119.385 59.0991 119.416 58.9575 119.426C58.8158 119.437 58.6513 119.428 58.4666 119.411C58.3007 119.396 58.1006 119.372 57.8705 119.344L57.8684 119.344C57.597 119.311 57.2813 119.273 56.9223 119.237C55.5715 119.102 53.4808 118.985 50.2503 119.244C50.214 119.247 50.1778 119.237 50.1504 119.217C50.1231 119.198 50.107 119.17 50.106 119.14L50.0902 118.66C50.0884 118.604 50.1402 118.556 50.2089 118.551ZM50.3564 118.755L50.3651 119.019C53.5364 118.774 55.6053 118.889 56.9542 119.024C57.3168 119.06 57.6354 119.099 57.9066 119.132L57.9071 119.132C58.1396 119.16 58.3353 119.183 58.496 119.198C58.6763 119.215 58.8194 119.221 58.9338 119.213C59.0119 119.207 59.0767 119.194 59.1317 119.173L59.0677 118.93C59.0295 118.938 58.9879 118.943 58.9429 118.947C58.818 118.956 58.6666 118.949 58.4847 118.932C58.3127 118.916 58.1185 118.893 57.8943 118.865L57.8924 118.865C57.6269 118.833 57.3164 118.795 56.942 118.758C55.5972 118.623 53.5303 118.508 50.3564 118.755Z" fill="#6B6B6B"/>
<path fill-rule="evenodd" clip-rule="evenodd" d="M77.7146 125.401C76.3154 125.23 74.154 125.082 70.8193 125.409L70.803 124.804C74.1506 124.476 76.3242 124.624 77.7349 124.796C78.1222 124.844 78.4432 124.892 78.7164 124.933C78.9487 124.967 79.1465 124.997 79.3211 125.016C79.506 125.037 79.6508 125.045 79.7653 125.034C79.8811 125.024 79.9549 124.996 80.0032 124.958L80.1239 125.518C80.0266 125.595 79.9109 125.628 79.7803 125.64C79.6485 125.651 79.4902 125.642 79.3025 125.621C79.1342 125.602 78.9301 125.572 78.6917 125.536C78.4124 125.495 78.086 125.446 77.7146 125.401Z" fill="#6B6B6B"/>
<path fill-rule="evenodd" clip-rule="evenodd" d="M70.9217 124.764C74.185 124.504 76.3069 124.621 77.6868 124.758C78.0648 124.796 78.3782 124.834 78.6437 124.867L78.644 124.867C78.8705 124.894 79.0602 124.917 79.227 124.933C79.4045 124.949 79.5345 124.954 79.6321 124.947C79.73 124.94 79.7739 124.921 79.7938 124.909C79.8294 124.886 79.877 124.879 79.9197 124.892C79.9624 124.904 79.9941 124.934 80.0037 124.97L80.1209 125.414C80.1315 125.454 80.1132 125.496 80.0737 125.521C79.9522 125.599 79.812 125.63 79.6703 125.64C79.5286 125.651 79.3641 125.642 79.1794 125.625C79.0136 125.61 78.8134 125.586 78.5834 125.558L78.5813 125.558C78.3098 125.525 77.9941 125.487 77.6351 125.451C76.2843 125.316 74.1936 125.199 70.9631 125.458C70.9268 125.461 70.8907 125.451 70.8633 125.431C70.8359 125.412 70.8198 125.383 70.8189 125.354L70.8031 124.874C70.8012 124.818 70.853 124.77 70.9217 124.764ZM71.0693 124.968L71.078 125.233C74.2492 124.988 76.3181 125.103 77.6671 125.238C78.0296 125.274 78.3482 125.312 78.6195 125.345L78.6199 125.345C78.8524 125.374 79.0481 125.397 79.2089 125.412C79.3891 125.429 79.5322 125.435 79.6467 125.426C79.7248 125.421 79.7896 125.408 79.8446 125.386L79.7805 125.144C79.7423 125.152 79.7008 125.157 79.6558 125.16C79.5308 125.17 79.3794 125.163 79.1976 125.146C79.0255 125.13 78.8314 125.106 78.6071 125.079L78.6052 125.079C78.3397 125.047 78.0293 125.009 77.6548 124.971C76.31 124.837 74.2431 124.722 71.0693 124.968Z" fill="#6B6B6B"/>
<path fill-rule="evenodd" clip-rule="evenodd" d="M117.326 88.9668C116.006 88.8753 113.994 88.936 111.218 89.3038L111.193 88.7377C113.977 88.3688 116.003 88.3068 117.339 88.3994C118.007 88.4457 118.507 88.5309 118.845 88.6379C119.013 88.691 119.149 88.7519 119.247 88.8219C119.296 88.8566 119.344 88.899 119.383 88.9536C119.42 89.0058 119.469 89.0963 119.478 89.2311L119.153 89.3015C119.158 89.3595 119.174 89.3899 119.178 89.3958C119.177 89.3957 119.177 89.3955 119.177 89.3954C119.173 89.3892 119.157 89.3715 119.123 89.3472C119.056 89.2992 118.946 89.2469 118.786 89.1964C118.47 89.0962 117.987 89.0126 117.326 88.9668ZM119.178 89.3969C119.178 89.3969 119.178 89.3965 119.178 89.3958C119.178 89.3965 119.178 89.3969 119.178 89.3969Z" fill="#6B6B6B"/>
<path fill-rule="evenodd" clip-rule="evenodd" d="M111.307 87.9247C114.008 87.3387 115.979 87.2388 117.285 87.3871C117.936 87.461 118.432 87.5977 118.774 87.7746C118.943 87.8622 119.089 87.9669 119.2 88.096L119.125 88.2677L119.2 88.096C119.255 88.1606 119.313 88.2439 119.362 88.3551C119.409 88.4632 119.467 88.6438 119.478 88.9044C119.483 89.0109 119.439 89.1069 119.375 89.1295L119.187 89.1961C119.187 89.2164 119.184 89.2485 119.173 89.2829C119.154 89.3395 119.12 89.3833 119.077 89.3945C119.043 89.4035 119.017 89.3879 119.007 89.3812C118.995 89.3732 118.986 89.364 118.982 89.3591C118.973 89.3491 118.967 89.3396 118.965 89.3363C118.96 89.3284 118.957 89.3215 118.956 89.3196C118.954 89.3158 118.952 89.3125 118.951 89.3105C118.951 89.31 118.951 89.3093 118.95 89.3085C118.947 89.3029 118.939 89.2926 118.928 89.2788C118.878 89.2209 118.786 89.1461 118.638 89.0694C118.345 88.9178 117.889 88.7868 117.254 88.7147C115.988 88.5709 114.049 88.6658 111.366 89.2478C111.329 89.2557 111.292 89.2382 111.264 89.1996C111.236 89.1609 111.219 89.1047 111.218 89.0446L111.193 88.1469C111.19 88.0358 111.24 87.9394 111.307 87.9247ZM118.982 88.8335C118.989 88.8285 118.997 88.8246 119.005 88.8218L119.195 88.7544C119.181 88.6868 119.163 88.6376 119.148 88.6046C119.121 88.5426 119.087 88.4913 119.048 88.4458C118.968 88.353 118.851 88.2647 118.695 88.1838C118.381 88.0213 117.908 87.888 117.267 87.8152C116.003 87.6717 114.09 87.7636 111.46 88.3246L111.473 88.7919C114.094 88.2346 116.005 88.1428 117.272 88.2866C117.917 88.3598 118.396 88.4942 118.717 88.6603C118.822 88.715 118.911 88.7732 118.982 88.8335ZM118.944 89.2925L119.05 89.1865L118.944 89.2925Z" fill="#6B6B6B"/>
<path fill-rule="evenodd" clip-rule="evenodd" d="M66.064 20.3513C67.2851 20.317 69.0993 20.266 71.7897 20.0088L71.8388 20.2443C69.13 20.5033 67.2985 20.5547 66.0773 20.589C65.8392 20.5957 65.6242 20.6018 65.4305 20.6086C64.828 20.6297 64.461 20.658 64.2321 20.7241C64.1244 20.7553 64.0555 20.7927 64.0076 20.8385C63.9583 20.8854 63.9219 20.9498 63.9008 21.0444L63.5536 21.0088C63.5799 20.8913 63.6301 20.7877 63.7213 20.7007C63.8138 20.6126 63.9392 20.5502 64.0943 20.5054C64.391 20.4196 64.8236 20.3917 65.4124 20.371C65.6082 20.3642 65.8247 20.3581 66.064 20.3513Z" fill="#6B6B6B"/>
<path fill-rule="evenodd" clip-rule="evenodd" d="M71.6477 20.0093C71.7142 20.0041 71.7749 20.0407 71.7885 20.0942L71.836 20.2809C71.8436 20.3108 71.8353 20.3419 71.8132 20.3664C71.7911 20.391 71.7573 20.4067 71.7202 20.4096C69.0928 20.6153 67.3158 20.6561 66.1322 20.6833C65.9015 20.6886 65.6938 20.6934 65.5068 20.6988C64.9193 20.7157 64.5812 20.7382 64.378 20.7863C64.2857 20.8081 64.2406 20.8312 64.2146 20.8515C64.1892 20.8714 64.1647 20.9021 64.1487 20.9606C64.1342 21.0136 64.0735 21.0494 64.0074 21.0439L63.6712 21.0156C63.634 21.0125 63.6002 20.9965 63.5783 20.9716C63.5564 20.9467 63.5486 20.9154 63.5567 20.8855C63.5867 20.7758 63.646 20.6733 63.7566 20.587C63.8666 20.5011 64.0097 20.4451 64.1718 20.4067C64.4776 20.3344 64.9138 20.3123 65.48 20.296C65.6701 20.2906 65.8802 20.2858 66.1116 20.2804C67.2931 20.2532 69.0469 20.2129 71.6477 20.0093ZM64.0862 20.661C64.0257 20.6847 63.9766 20.7117 63.9374 20.7423C63.9085 20.7649 63.885 20.7894 63.8659 20.8163L63.9287 20.8216C63.9546 20.7724 63.9893 20.7309 64.0338 20.6962C64.05 20.6836 64.0674 20.6719 64.0862 20.661Z" fill="#6B6B6B"/>
<path fill-rule="evenodd" clip-rule="evenodd" d="M57.0343 46.4594C58.5926 46.5699 60.8067 46.5802 63.5474 46.5398L63.5532 46.9136C60.8125 46.954 58.5833 46.9441 57.0064 46.8323C56.2191 46.7764 55.5848 46.6946 55.1275 46.5778C54.8993 46.5195 54.7057 46.4501 54.5567 46.3652C54.4098 46.2814 54.2844 46.1698 54.2324 46.0179L54.5967 45.8997C54.607 45.9296 54.6425 45.9809 54.7509 46.0427C54.8573 46.1033 55.0134 46.1622 55.2251 46.2163C55.6476 46.3242 56.2539 46.4041 57.0343 46.4594Z" fill="#6B6B6B"/>
<path fill-rule="evenodd" clip-rule="evenodd" d="M54.8412 45.9695C54.8167 45.9158 54.7445 45.8871 54.6774 45.9049L54.3233 45.9986C54.2898 46.0075 54.262 46.027 54.2462 46.0527C54.2305 46.0784 54.228 46.1082 54.2395 46.1354C54.3049 46.2914 54.4585 46.3969 54.614 46.4693C54.7731 46.5433 54.9739 46.6012 55.2012 46.6485C55.6572 46.7436 56.283 46.809 57.0503 46.8533C58.5889 46.9423 60.7602 46.9501 63.4237 46.9181C63.4586 46.9176 63.4918 46.9059 63.5161 46.8855C63.5404 46.8651 63.5538 46.8376 63.5532 46.8091L63.5476 46.5128C63.5464 46.4536 63.4867 46.4063 63.4141 46.4072C60.7508 46.4392 58.6042 46.431 57.096 46.3438C56.3399 46.3 55.7602 46.2372 55.3611 46.154C55.1609 46.1123 55.0218 46.0685 54.9329 46.0272C54.861 45.9937 54.8432 45.972 54.8412 45.9695ZM54.5571 46.1623C54.6032 46.2067 54.6666 46.2467 54.7442 46.2829C54.8745 46.3435 55.05 46.3956 55.2663 46.4407C55.6991 46.5309 56.3061 46.5952 57.0689 46.6393C58.5699 46.7261 60.6851 46.7353 63.2882 46.7051L63.2866 46.6233C60.6837 46.6535 58.5729 46.6443 57.0774 46.5578C56.3168 46.5138 55.7182 46.4499 55.296 46.3619C55.0848 46.3179 54.9204 46.2683 54.8026 46.2135C54.7461 46.1873 54.7016 46.1604 54.6677 46.133L54.5571 46.1623Z" fill="#6B6B6B"/>
<path d="M90.4801 73.3443C90.4801 69.0545 87.2344 65.5769 83.2306 65.5769C79.2268 65.5769 75.981 69.0545 75.981 73.3443C75.981 77.6341 79.2268 81.1117 83.2306 81.1117C87.2344 81.1117 90.4801 77.6341 90.4801 73.3443Z" fill="#6B6B6B"/>
<path d="M92.5519 26.7401C92.5519 24.7382 91.1609 23.1153 89.445 23.1153C87.729 23.1153 86.338 24.7382 86.338 26.7401C86.338 28.742 87.729 30.3649 89.445 30.3649C91.1609 30.3649 92.5519 28.742 92.5519 26.7401Z" fill="#6B6B6B"/>
<path fill-rule="evenodd" clip-rule="evenodd" d="M78.5744 73.3443C78.5744 76.757 81.568 79.5557 85.3022 79.5557C89.0364 79.5557 92.03 76.757 92.03 73.3443C92.03 69.9317 89.0364 67.1329 85.3022 67.1329C81.568 67.1329 78.5744 69.9317 78.5744 73.3443ZM85.3022 80.076C81.3169 80.076 78.0526 77.08 78.0526 73.3443C78.0526 69.6087 81.3169 66.6126 85.3022 66.6126C89.2875 66.6126 92.5517 69.6087 92.5517 73.3443C92.5517 77.08 89.2875 80.076 85.3022 80.076Z" fill="#6B6B6B"/>
<path fill-rule="evenodd" clip-rule="evenodd" d="M85.8058 26.2226C85.8058 27.629 87.1653 28.8317 88.9269 28.8317C90.6884 28.8317 92.048 27.629 92.048 26.2226C92.048 24.8163 90.6884 23.6136 88.9269 23.6136C87.1653 23.6136 85.8058 24.8163 85.8058 26.2226ZM88.9269 29.3296C86.9628 29.3296 85.3021 27.9732 85.3021 26.2226C85.3021 24.4721 86.9628 23.1157 88.9269 23.1157C90.891 23.1157 92.5516 24.4721 92.5516 26.2226C92.5516 27.9732 90.891 29.3296 88.9269 29.3296Z" fill="#6B6B6B"/>
</g>
<path fill-rule="evenodd" clip-rule="evenodd" d="M89.0642 155.307C127.664 155.956 159.506 128.316 157.994 86.5567C157.933 84.8579 156.159 83.7904 154.493 84.0916C153.631 84.2475 152.744 84.3289 151.837 84.3289C143.612 84.3289 136.945 77.6335 136.945 69.3742C136.945 68.3718 137.043 67.3923 137.231 66.4451C137.289 66.148 137.063 65.8663 136.761 65.8663C123.663 65.8663 113.045 55.2032 113.045 42.0496C113.045 33.5495 117.479 26.0894 124.151 21.8749C125.818 20.8217 126.097 18.2922 124.414 17.2646C113.149 10.387 99.3306 6.44995 83.4322 6.41687C46.8371 6.51283 9.2906 43.5888 14.201 84.4558C14.2171 84.5899 14.2229 84.7271 14.2178 84.862C13.4743 104.683 20.3161 122.462 32.9669 135.21C34.4025 136.657 36.9245 135.656 37.7084 133.772C39.9546 128.372 45.2637 124.577 51.4554 124.577C59.6799 124.577 66.3472 131.273 66.3472 139.532C66.3472 142.751 65.3345 145.732 63.6117 148.172C62.4433 149.827 62.9292 152.478 64.8901 152.966C72.3094 154.812 80.4 155.647 89.0642 155.307Z" fill="#D1B893"/>
<path fill-rule="evenodd" clip-rule="evenodd" d="M91.8689 154.812L91.8827 154.812C130.022 155.454 161.464 128.32 160.334 87.2597C160.311 86.4264 159.867 85.7342 159.181 85.2667C158.49 84.7954 157.574 84.571 156.685 84.6892C156.018 84.7779 155.338 84.8236 154.647 84.8236C146.15 84.8236 139.263 77.9067 139.263 69.3742C139.263 68.3435 139.363 67.3358 139.555 66.3608C126.192 66.3522 115.362 55.4709 115.362 42.0494C115.362 33.7112 119.542 26.3536 125.911 21.975C126.755 21.3946 127.252 20.4392 127.314 19.5022C127.375 18.574 127.011 17.7059 126.181 17.2142C115.146 10.6804 101.69 6.94396 86.2426 6.91164C68.1115 6.95958 49.7066 16.1705 36.436 30.4702C23.1683 44.7669 15.0758 64.1029 17.4956 84.3564C17.5179 84.5426 17.5259 84.733 17.5189 84.9211C16.8044 104.235 23.3388 121.575 35.4386 134.157C36.1233 134.869 37.1003 135.01 38.0856 134.696C39.0781 134.38 40.007 133.618 40.4891 132.647C43.0093 127.571 48.2311 124.082 54.2653 124.082C62.7619 124.082 69.6497 130.999 69.6497 139.532C69.6497 142.494 68.8191 145.263 67.3788 147.614C66.817 148.532 66.6648 149.715 66.9197 150.723C67.1728 151.725 67.8036 152.489 68.7602 152.714C75.8737 154.388 83.6 155.137 91.8552 154.812L91.8689 154.812ZM86.2425 6.41687C101.77 6.44917 115.314 10.2054 126.431 16.788C128.467 17.9936 128.14 21.0423 126.189 22.3832C119.949 26.6736 115.855 33.8813 115.855 42.0494C115.855 55.203 126.473 65.8661 139.571 65.8661C139.873 65.8661 140.099 66.1479 140.041 66.4452C139.853 67.3924 139.755 68.3718 139.755 69.3742C139.755 77.6334 146.422 84.3289 154.647 84.3289C155.316 84.3289 155.975 84.2846 156.62 84.1987C158.634 83.931 160.771 85.2069 160.827 87.246C161.965 128.62 130.261 155.952 91.8744 155.307C83.5776 155.633 75.8068 154.881 68.6478 153.196C66.2876 152.64 65.6891 149.429 66.9591 147.355C68.3531 145.079 69.157 142.4 69.157 139.532C69.157 131.273 62.4898 124.577 54.2653 124.577C48.4251 124.577 43.3701 127.953 40.93 132.868C39.8412 135.061 36.7794 136.263 35.0842 134.501C22.8854 121.815 16.3075 104.343 17.0266 84.9027C17.0326 84.7408 17.0257 84.5762 17.0064 84.4153C12.1257 43.5642 49.6595 6.5128 86.2425 6.41687Z" fill="#313131"/>
<g opacity="0.2">
<path fill-rule="evenodd" clip-rule="evenodd" d="M96.6803 138.049C128.482 138.584 159.292 121.864 158.046 87.4578C157.916 83.8583 156.172 84.6472 156.172 84.6472C146.335 87.4578 136.885 80.2094 136.885 73.4046C136.885 72.5787 136.73 67.1669 136.885 66.3865C136.933 66.1416 136.746 65.9095 136.498 65.9095C125.706 65.9095 113.362 57.946 113.362 39.4684C113.362 32.4652 117.016 26.3188 122.513 22.8464C123.887 21.9787 124.116 19.8947 122.729 19.048C113.449 13.3816 102.063 10.1378 88.9647 10.1106C58.8141 10.1897 27.8795 40.7365 31.9252 74.4069C31.9385 74.5173 31.9432 74.6303 31.939 74.7415C31.3265 91.0723 36.9634 105.72 47.3864 116.223C48.5692 117.415 50.6471 116.591 51.2929 115.038C53.1436 110.589 57.5177 107.463 62.6191 107.463C69.3952 107.463 74.8884 112.979 74.8884 119.784C74.8884 122.436 74.0541 124.892 72.6347 126.902C71.672 128.266 72.0724 130.451 73.6879 130.853C78.4111 135.239 89.5419 138.33 96.6803 138.049Z" fill="white"/>
<path d="M69.9962 76.2177C69.9962 73.873 67.9575 72.2462 65.7508 72.2462C63.544 72.2462 61.5053 74.5578 61.5053 76.9025C61.5053 79.2472 63.544 80.7371 65.7508 80.7371C67.9575 80.7371 69.9962 78.5624 69.9962 76.2177Z" fill="white"/>
<path fill-rule="evenodd" clip-rule="evenodd" d="M61.1535 75.7616C61.1535 78.0561 63.1486 79.545 65.3647 79.545C66.4445 79.545 67.4973 79.0118 68.2841 78.1737C69.0704 77.336 69.576 76.2092 69.576 75.0485C69.576 72.7448 67.5704 71.1225 65.3647 71.1225C64.2894 71.1225 63.2372 71.6872 62.4482 72.562C61.6599 73.4361 61.1535 74.5998 61.1535 75.7616ZM65.3647 79.9651C62.9845 79.9651 60.7333 78.3507 60.7333 75.7616C60.7333 74.4815 61.2885 73.2206 62.1363 72.2806C62.9835 71.3412 64.1419 70.7023 65.3647 70.7023C67.7555 70.7023 69.9961 72.4685 69.9961 75.0485C69.9961 76.3295 69.4401 77.5561 68.5904 78.4612C67.741 79.3659 66.5831 79.9651 65.3647 79.9651Z" fill="white"/>
<path d="M86.2205 84.6356C87.4928 85.3974 89.0646 84.775 89.8105 83.5293C90.5563 82.2835 89.9909 80.3817 88.7185 79.6199C87.4461 78.8582 85.9486 79.525 85.2028 80.7708C84.457 82.0165 84.9481 83.8739 86.2205 84.6356Z" fill="white"/>
<path fill-rule="evenodd" clip-rule="evenodd" d="M88.3836 79.6296C87.3587 79.0161 86.054 79.6739 85.346 80.8565C84.9989 81.4362 84.9042 82.1418 85.0292 82.783C85.1543 83.4242 85.4973 83.9924 86.0148 84.3022C87.0425 84.9175 88.4098 84.2918 89.1154 83.1132C89.4616 82.535 89.5415 81.8209 89.401 81.1695C89.2604 80.518 88.9014 79.9397 88.3836 79.6296ZM85.2028 80.7708C85.9383 79.5423 87.3401 78.7947 88.4762 79.4749C89.0388 79.8117 89.4193 80.4325 89.5676 81.1198C89.7159 81.8072 89.6342 82.5716 89.2586 83.1989C88.5208 84.4314 87.0553 85.1354 85.9221 84.457C85.3591 84.12 84.9943 83.5079 84.862 82.8293C84.7296 82.1505 84.8282 81.3965 85.2028 80.7708Z" fill="white"/>
<path d="M121.546 107.754C119.642 107.106 117.772 108.265 117.179 110.007C116.586 111.749 117.916 113.998 119.82 114.646C121.725 115.295 123.483 114.097 124.076 112.355C124.669 110.613 123.45 108.403 121.546 107.754Z" fill="white"/>
<path d="M146.917 58.0011C146.502 57.5647 145.845 57.6128 145.445 57.9926C145.046 58.3725 144.722 59.1993 145.138 59.6358C145.553 60.0722 146.55 59.9529 146.949 59.5731C147.348 59.1933 147.332 58.4376 146.917 58.0011Z" fill="white"/>
<path fill-rule="evenodd" clip-rule="evenodd" d="M145.625 59.7863C145.946 59.7655 146.244 59.651 146.397 59.5046C146.547 59.3625 146.629 59.1386 146.623 58.8916C146.618 58.6454 146.527 58.3978 146.358 58.2205C146.031 57.8773 145.504 57.905 145.174 58.2191C145.003 58.3819 144.842 58.6496 144.772 58.9224C144.701 59.198 144.735 59.4284 144.874 59.5744C145.021 59.7296 145.301 59.8073 145.625 59.7863ZM145.651 60.1927C145.273 60.2172 144.846 60.1364 144.579 59.8551C144.302 59.5646 144.29 59.1634 144.377 58.8215C144.466 58.4768 144.665 58.1412 144.894 57.9241C145.362 57.4785 146.149 57.41 146.653 57.9398C146.899 58.1989 147.024 58.5473 147.031 58.8831C147.038 59.2179 146.928 59.5619 146.678 59.7996C146.433 60.033 146.032 60.168 145.651 60.1927Z" fill="white"/>
<path d="M96.9431 29.8854C95.9384 29.5434 94.9473 30.1699 94.629 31.1049C94.3107 32.0399 95.0072 33.2408 96.0119 33.5829C97.0166 33.9249 97.949 33.2784 98.2673 32.3434C98.5856 31.4084 97.9478 30.2274 96.9431 29.8854Z" fill="white"/>
<path d="M128.625 105.958C127.547 105.655 126.404 106.4 125.977 107.433C125.55 108.466 126.219 109.719 127.298 110.022C128.376 110.325 129.456 109.562 129.883 108.529C130.31 107.496 129.704 106.26 128.625 105.958Z" fill="white"/>
<path d="M42.5432 61.8482C41.7923 63.243 42.4666 65.0499 43.7605 65.9583C45.0545 66.8666 46.9901 66.3307 47.741 64.9359C48.4919 63.5411 47.7737 61.8156 46.4798 60.9072C45.1858 59.9989 43.294 60.4534 42.5432 61.8482Z" fill="white"/>
<path fill-rule="evenodd" clip-rule="evenodd" d="M46.7604 64.6526C47.4389 63.3922 46.808 61.7898 45.5693 60.9202C44.9738 60.5021 44.2315 60.3924 43.5438 60.557C42.8562 60.7217 42.2417 61.1562 41.8958 61.7988C41.2133 63.0666 41.8128 64.749 43.0431 65.6126C43.6352 66.0283 44.3862 66.1205 45.0867 65.936C45.7872 65.7515 46.4139 65.2961 46.7604 64.6526ZM45.7623 60.5616C47.1114 61.5087 47.9169 63.3573 47.0937 64.8865C46.6892 65.6378 45.9727 66.1478 45.1941 66.3529C44.4156 66.5579 43.5519 66.4639 42.85 65.9712C41.4925 65.0181 40.7433 63.0866 41.5625 61.5648C41.9675 60.8126 42.6744 60.3225 43.4438 60.1383C44.2132 59.9541 45.0638 60.0713 45.7623 60.5616Z" fill="white"/>
<path fill-rule="evenodd" clip-rule="evenodd" d="M120.294 114.553C121.809 115.069 123.332 113.847 123.924 112.107C124.215 111.253 124.139 110.306 123.794 109.504C123.449 108.701 122.839 108.055 122.074 107.795C120.555 107.277 118.941 108.475 118.351 110.209C118.061 111.06 118.158 112.015 118.526 112.826C118.895 113.638 119.528 114.293 120.294 114.553ZM124.136 112.179C123.52 113.987 121.896 115.353 120.216 114.781C119.385 114.498 118.711 113.793 118.322 112.937C117.934 112.081 117.825 111.061 118.139 110.137C118.756 108.323 120.476 106.996 122.152 107.567C122.984 107.85 123.635 108.548 124 109.397C124.365 110.246 124.45 111.258 124.136 112.179Z" fill="white"/>
<path fill-rule="evenodd" clip-rule="evenodd" d="M96.2374 33.5232C97.0508 33.8001 97.8679 33.1444 98.1859 32.2101C98.3419 31.7521 98.3013 31.2435 98.1161 30.813C97.9309 30.3823 97.6036 30.0354 97.1929 29.8956C96.3773 29.618 95.5113 30.2605 95.1943 31.1917C95.0388 31.6485 95.091 32.1608 95.2887 32.5962C95.4864 33.0317 95.8264 33.3833 96.2374 33.5232ZM98.2996 32.2488C97.9692 33.2193 97.0975 33.9524 96.1958 33.6455C95.7494 33.4935 95.3877 33.1153 95.1792 32.6559C94.9706 32.1964 94.912 31.6486 95.0807 31.153C95.4122 30.1793 96.3352 29.4672 97.2345 29.7733C97.6813 29.9254 98.0306 30.2998 98.2266 30.7555C98.4227 31.2114 98.4679 31.7544 98.2996 32.2488Z" fill="white"/>
<path fill-rule="evenodd" clip-rule="evenodd" d="M127.499 109.519C128.485 109.796 129.477 109.14 129.863 108.206C130.052 107.748 130.003 107.24 129.778 106.809C129.553 106.378 129.156 106.032 128.658 105.892C127.668 105.614 126.617 106.257 126.233 107.188C126.044 107.645 126.107 108.157 126.347 108.592C126.587 109.028 127 109.379 127.499 109.519ZM130.001 108.245C129.6 109.215 128.542 109.949 127.448 109.642C126.906 109.49 126.467 109.111 126.214 108.652C125.961 108.192 125.89 107.645 126.095 107.149C126.497 106.175 127.617 105.463 128.708 105.769C129.251 105.922 129.674 106.296 129.912 106.752C130.15 107.207 130.205 107.75 130.001 108.245Z" fill="white"/>
<path fill-rule="evenodd" clip-rule="evenodd" d="M72.8321 100.624C71.7892 100.496 70.1783 100.387 67.6928 100.63L67.6807 100.179C70.1758 99.9349 71.7958 100.045 72.8472 100.174C73.1359 100.209 73.3751 100.245 73.5788 100.275C73.7519 100.301 73.8994 100.323 74.0295 100.337C74.1673 100.353 74.2752 100.359 74.3606 100.351C74.4468 100.343 74.5019 100.322 74.5379 100.294L74.6278 100.711C74.5553 100.768 74.469 100.793 74.3717 100.802C74.2735 100.811 74.1555 100.804 74.0156 100.788C73.8901 100.774 73.7381 100.751 73.5603 100.725C73.3522 100.694 73.1089 100.658 72.8321 100.624Z" fill="white"/>
<path fill-rule="evenodd" clip-rule="evenodd" d="M67.7692 100.15C70.2014 99.9552 71.7829 100.043 72.8113 100.145C73.0931 100.173 73.3267 100.202 73.5246 100.226L73.5248 100.226C73.6936 100.246 73.835 100.264 73.9593 100.275C74.0916 100.287 74.1885 100.291 74.2613 100.286C74.3342 100.28 74.3669 100.267 74.3818 100.257C74.4083 100.24 74.4438 100.235 74.4756 100.245C74.5074 100.254 74.5311 100.276 74.5382 100.303L74.6256 100.634C74.6335 100.664 74.6198 100.695 74.5904 100.714C74.4998 100.772 74.3953 100.795 74.2898 100.802C74.1841 100.81 74.0615 100.804 73.9239 100.791C73.8003 100.78 73.6511 100.762 73.4796 100.741L73.478 100.741C73.2757 100.716 73.0404 100.688 72.7729 100.661C71.7661 100.561 70.2078 100.474 67.8001 100.666C67.773 100.668 67.746 100.661 67.7256 100.647C67.7053 100.632 67.6933 100.611 67.6925 100.589L67.6808 100.231C67.6794 100.189 67.718 100.154 67.7692 100.15ZM67.8792 100.302L67.8857 100.499C70.2493 100.316 71.7913 100.402 72.7967 100.502C73.0669 100.529 73.3043 100.558 73.5065 100.583L73.5068 100.583C73.6801 100.604 73.826 100.621 73.9458 100.632C74.0802 100.645 74.1868 100.649 74.2721 100.643C74.3303 100.639 74.3786 100.63 74.4196 100.613L74.3719 100.433C74.3434 100.438 74.3124 100.442 74.2789 100.445C74.1858 100.452 74.0729 100.446 73.9374 100.434C73.8092 100.422 73.6645 100.405 73.4973 100.384L73.4959 100.384C73.298 100.36 73.0666 100.332 72.7875 100.304C71.7852 100.204 70.2447 100.118 67.8792 100.302Z" fill="white"/>
<path fill-rule="evenodd" clip-rule="evenodd" d="M88.2696 105.256C87.2267 105.128 85.6158 105.019 83.1303 105.262L83.1182 104.811C85.6133 104.567 87.2333 104.677 88.2847 104.805C88.5734 104.841 88.8126 104.877 89.0163 104.907C89.1894 104.933 89.3369 104.955 89.467 104.969C89.6048 104.985 89.7127 104.991 89.7981 104.983C89.8843 104.975 89.9394 104.954 89.9754 104.926L90.0653 105.343C89.9928 105.4 89.9065 105.425 89.8092 105.434C89.711 105.443 89.593 105.436 89.4531 105.42C89.3276 105.406 89.1756 105.383 88.9978 105.357C88.7897 105.326 88.5464 105.29 88.2696 105.256Z" fill="white"/>
<path fill-rule="evenodd" clip-rule="evenodd" d="M83.2067 104.782C85.6389 104.587 87.2204 104.674 88.2488 104.777C88.5306 104.805 88.7642 104.834 88.9621 104.858L88.9623 104.858C89.1311 104.878 89.2725 104.896 89.3968 104.907C89.5291 104.919 89.626 104.923 89.6988 104.918C89.7717 104.912 89.8044 104.899 89.8193 104.889C89.8458 104.872 89.8813 104.867 89.9131 104.877C89.9449 104.886 89.9686 104.908 89.9757 104.935L90.0631 105.266C90.071 105.296 90.0573 105.327 90.0279 105.346C89.9373 105.404 89.8328 105.427 89.7273 105.434C89.6216 105.442 89.499 105.436 89.3614 105.423C89.2378 105.412 89.0886 105.394 88.9171 105.373L88.9155 105.373C88.7132 105.348 88.4779 105.32 88.2104 105.293C87.2036 105.193 85.6453 105.106 83.2376 105.298C83.2105 105.3 83.1835 105.293 83.1631 105.279C83.1428 105.264 83.1308 105.243 83.13 105.221L83.1183 104.863C83.1169 104.821 83.1555 104.786 83.2067 104.782ZM83.3167 104.934L83.3232 105.131C85.6868 104.948 87.2288 105.034 88.2342 105.134C88.5044 105.161 88.7418 105.19 88.944 105.215L88.9443 105.215C89.1176 105.236 89.2635 105.253 89.3833 105.264C89.5177 105.277 89.6243 105.281 89.7096 105.275C89.7678 105.271 89.8161 105.261 89.8571 105.245L89.8094 105.064C89.7809 105.07 89.7499 105.074 89.7164 105.077C89.6233 105.084 89.5104 105.078 89.3749 105.066C89.2467 105.054 89.102 105.037 88.9348 105.016L88.9334 105.016C88.7355 104.992 88.5041 104.964 88.225 104.936C87.2227 104.836 85.6822 104.75 83.3167 104.934Z" fill="white"/>
<path fill-rule="evenodd" clip-rule="evenodd" d="M117.793 78.1003C116.81 78.0321 115.31 78.0773 113.241 78.3515L113.222 77.9295C115.297 77.6546 116.807 77.6084 117.803 77.6774C118.301 77.7119 118.673 77.7754 118.926 77.8551C119.051 77.8948 119.152 77.9401 119.225 77.9923C119.262 78.0181 119.297 78.0498 119.326 78.0905C119.354 78.1294 119.39 78.1968 119.398 78.2973L119.155 78.3498C119.158 78.393 119.171 78.4156 119.173 78.42C119.173 78.4199 119.173 78.4198 119.173 78.4197C119.17 78.4151 119.158 78.4019 119.133 78.3838C119.082 78.348 119.001 78.309 118.882 78.2714C118.646 78.1968 118.286 78.1344 117.793 78.1003ZM119.174 78.4208C119.174 78.4208 119.174 78.4206 119.173 78.42C119.174 78.4206 119.174 78.4208 119.174 78.4208Z" fill="white"/>
<path fill-rule="evenodd" clip-rule="evenodd" d="M113.307 77.3235C115.321 76.8867 116.789 76.8123 117.763 76.9228C118.248 76.9779 118.618 77.0797 118.872 77.2116C118.998 77.2769 119.107 77.3549 119.19 77.4512L119.134 77.5791L119.19 77.4512C119.231 77.4993 119.274 77.5614 119.31 77.6443C119.346 77.7248 119.389 77.8595 119.397 78.0536C119.401 78.1331 119.368 78.2046 119.321 78.2214L119.181 78.2711C119.18 78.2862 119.178 78.3101 119.17 78.3358C119.156 78.378 119.13 78.4106 119.099 78.419C119.073 78.4256 119.054 78.414 119.046 78.4091C119.037 78.4031 119.031 78.3962 119.028 78.3926C119.021 78.3851 119.017 78.3781 119.015 78.3756C119.011 78.3697 119.009 78.3646 119.008 78.3631C119.007 78.3603 119.005 78.3579 119.005 78.3564C119.005 78.3559 119.004 78.3554 119.004 78.3548C119.001 78.3507 118.996 78.343 118.987 78.3327C118.95 78.2896 118.881 78.2338 118.771 78.1767C118.553 78.0637 118.213 77.966 117.74 77.9123C116.796 77.8051 115.351 77.8758 113.351 78.3096C113.324 78.3155 113.296 78.3025 113.275 78.2737C113.254 78.2449 113.242 78.2029 113.241 78.1581L113.222 77.4891C113.22 77.4063 113.257 77.3344 113.307 77.3235ZM119.028 78.0008C119.033 77.9971 119.039 77.9942 119.045 77.9921L119.186 77.9419C119.176 77.8915 119.162 77.8548 119.152 77.8302C119.131 77.784 119.106 77.7458 119.077 77.7119C119.017 77.6427 118.93 77.5769 118.813 77.5166C118.579 77.3955 118.227 77.2961 117.749 77.2418C116.807 77.1349 115.381 77.2034 113.422 77.6215L113.431 77.9698C115.384 77.5545 116.809 77.486 117.753 77.5932C118.234 77.6478 118.591 77.7479 118.83 77.8717C118.909 77.9125 118.975 77.9559 119.028 78.0008ZM118.999 78.3429L119.079 78.2639L118.999 78.3429Z" fill="white"/>
<path fill-rule="evenodd" clip-rule="evenodd" d="M79.5863 26.9592C80.4964 26.9336 81.8486 26.8956 83.8538 26.7039L83.8904 26.8794C81.8714 27.0724 80.5064 27.1108 79.5962 27.1363C79.4187 27.1413 79.2585 27.1458 79.1141 27.1509C78.6651 27.1666 78.3915 27.1877 78.2209 27.237C78.1406 27.2602 78.0893 27.2882 78.0536 27.3222C78.0168 27.3572 77.9897 27.4052 77.9739 27.4758L77.7152 27.4492C77.7348 27.3616 77.7722 27.2844 77.8402 27.2196C77.9091 27.1539 78.0026 27.1074 78.1182 27.074C78.3393 27.0101 78.6618 26.9892 79.1006 26.9738C79.2466 26.9687 79.4079 26.9642 79.5863 26.9592Z" fill="white"/>
<path fill-rule="evenodd" clip-rule="evenodd" d="M83.748 26.7042C83.7975 26.7003 83.8427 26.7276 83.8529 26.7675L83.8883 26.9067C83.894 26.9289 83.8878 26.9521 83.8713 26.9704C83.8548 26.9887 83.8296 27.0004 83.802 27.0026C81.8437 27.1559 80.5193 27.1863 79.6371 27.2066C79.4651 27.2106 79.3104 27.2141 79.171 27.2181C78.7331 27.2307 78.4811 27.2475 78.3297 27.2833C78.2609 27.2996 78.2273 27.3168 78.2079 27.332C78.1889 27.3468 78.1707 27.3696 78.1587 27.4132C78.1479 27.4528 78.1027 27.4795 78.0535 27.4753L77.8029 27.4543C77.7751 27.4519 77.7499 27.44 77.7336 27.4215C77.7173 27.4029 77.7114 27.3796 77.7175 27.3573C77.7399 27.2755 77.7841 27.1992 77.8665 27.1348C77.9485 27.0708 78.0552 27.029 78.176 27.0004C78.4039 26.9465 78.729 26.9301 79.151 26.918C79.2927 26.9139 79.4493 26.9103 79.6218 26.9063C80.5023 26.8861 81.8095 26.856 83.748 26.7042ZM78.1121 27.19C78.0671 27.2076 78.0305 27.2278 78.0013 27.2506C77.9797 27.2674 77.9622 27.2857 77.948 27.3057L77.9948 27.3096C78.0141 27.273 78.04 27.2421 78.0731 27.2162C78.0852 27.2068 78.0982 27.1981 78.1121 27.19Z" fill="white"/>
<path fill-rule="evenodd" clip-rule="evenodd" d="M72.8566 46.4186C74.018 46.5009 75.6683 46.5086 77.711 46.4785L77.7153 46.757C75.6726 46.7872 74.0111 46.7798 72.8358 46.6964C72.249 46.6548 71.7762 46.5939 71.4354 46.5068C71.2653 46.4633 71.121 46.4116 71.01 46.3483C70.9005 46.2859 70.807 46.2027 70.7683 46.0894L71.0398 46.0013C71.0475 46.0237 71.074 46.0619 71.1547 46.1079C71.234 46.1532 71.3504 46.197 71.5081 46.2373C71.8231 46.3178 72.275 46.3773 72.8566 46.4186Z" fill="white"/>
<path fill-rule="evenodd" clip-rule="evenodd" d="M71.222 46.0534C71.2038 46.0134 71.15 45.992 71.0999 46.0053L70.836 46.0751C70.811 46.0817 70.7903 46.0962 70.7786 46.1154C70.7669 46.1346 70.765 46.1568 70.7735 46.1771C70.8223 46.2933 70.9368 46.372 71.0527 46.4259C71.1713 46.481 71.3209 46.5242 71.4904 46.5595C71.8302 46.6303 72.2966 46.6791 72.8685 46.7121C74.0153 46.7785 75.6336 46.7843 77.6188 46.7604C77.6448 46.7601 77.6696 46.7513 77.6877 46.7361C77.7058 46.7209 77.7157 46.7004 77.7153 46.6792L77.7111 46.4583C77.7103 46.4142 77.6658 46.379 77.6117 46.3796C75.6266 46.4035 74.0267 46.3974 72.9026 46.3323C72.3391 46.2997 71.907 46.2529 71.6095 46.1909C71.4603 46.1598 71.3567 46.1272 71.2904 46.0964C71.2368 46.0714 71.2235 46.0553 71.222 46.0534ZM71.0103 46.1971C71.0446 46.2302 71.0919 46.26 71.1498 46.287C71.2469 46.3321 71.3777 46.371 71.5389 46.4046C71.8614 46.4718 72.3139 46.5197 72.8824 46.5526C74.0011 46.6173 75.5777 46.6242 77.5178 46.6016L77.5166 46.5407C75.5766 46.5632 74.0033 46.5563 72.8887 46.4919C72.3218 46.4591 71.8757 46.4115 71.561 46.3459C71.4036 46.3131 71.2811 46.2761 71.1933 46.2353C71.1512 46.2157 71.118 46.1957 71.0928 46.1753L71.0103 46.1971Z" fill="white"/>
<path d="M97.7848 66.4566C97.7848 63.2593 95.3656 60.6674 92.3815 60.6674C89.3973 60.6674 86.9782 63.2593 86.9782 66.4566C86.9782 69.6539 89.3973 72.2458 92.3815 72.2458C95.3656 72.2458 97.7848 69.6539 97.7848 66.4566Z" fill="white"/>
<path d="M99.3285 31.7208C99.3285 30.2288 98.2918 29.0192 97.0128 29.0192C95.7339 29.0192 94.6971 30.2288 94.6971 31.7208C94.6971 33.2129 95.7339 34.4225 97.0128 34.4225C98.2918 34.4225 99.3285 33.2129 99.3285 31.7208Z" fill="white"/>
<path fill-rule="evenodd" clip-rule="evenodd" d="M88.9108 66.4564C88.9108 68.9999 91.142 71.0859 93.9251 71.0859C96.7083 71.0859 98.9395 68.9999 98.9395 66.4564C98.9395 63.9129 96.7083 61.8269 93.9251 61.8269C91.142 61.8269 88.9108 63.9129 88.9108 66.4564ZM93.9251 71.4738C90.9548 71.4738 88.5219 69.2407 88.5219 66.4564C88.5219 63.6722 90.9548 61.4391 93.9251 61.4391C96.8955 61.4391 99.3284 63.6722 99.3284 66.4564C99.3284 69.2407 96.8955 71.4738 93.9251 71.4738Z" fill="white"/>
<path fill-rule="evenodd" clip-rule="evenodd" d="M94.3006 31.3353C94.3006 32.3835 95.314 33.2799 96.6269 33.2799C97.9398 33.2799 98.9531 32.3835 98.9531 31.3353C98.9531 30.2871 97.9398 29.3907 96.6269 29.3907C95.314 29.3907 94.3006 30.2871 94.3006 31.3353ZM96.6269 33.651C95.163 33.651 93.9253 32.64 93.9253 31.3353C93.9253 30.0306 95.163 29.0196 96.6269 29.0196C98.0908 29.0196 99.3285 30.0306 99.3285 31.3353C99.3285 32.64 98.0908 33.651 96.6269 33.651Z" fill="white"/>
</g>
<path d="M61.5472 84.3141C61.5472 81.4683 59.0728 79.4937 56.3944 79.4937C53.7159 79.4937 51.2415 82.2994 51.2415 85.1452C51.2415 87.9911 53.7159 89.7994 56.3944 89.7994C59.0728 89.7994 61.5472 87.16 61.5472 84.3141Z" fill="#A99473"/>
<path fill-rule="evenodd" clip-rule="evenodd" d="M50.8144 83.7609C50.8144 86.5459 53.2359 88.353 55.9258 88.353C57.2364 88.353 58.5141 87.7058 59.4691 86.6886C60.4235 85.6718 61.0371 84.3042 61.0371 82.8954C61.0371 80.0994 58.6029 78.1303 55.9258 78.1303C54.6206 78.1303 53.3434 78.8158 52.3859 79.8775C51.4291 80.9385 50.8144 82.3508 50.8144 83.7609ZM55.9258 88.8629C53.0368 88.8629 50.3045 86.9035 50.3045 83.7609C50.3045 82.2073 50.9783 80.6769 52.0072 79.536C53.0355 78.3958 54.4415 77.6203 55.9258 77.6203C58.8275 77.6203 61.5471 79.764 61.5471 82.8954C61.5471 84.4503 60.8722 85.939 59.8408 87.0376C58.81 88.1357 57.4046 88.8629 55.9258 88.8629Z" fill="#313131"/>
<path d="M81.2394 94.5314C82.7837 95.456 84.6915 94.7007 85.5967 93.1886C86.5019 91.6766 85.8157 89.3683 84.2713 88.4437C82.727 87.5191 80.9094 88.3285 80.0042 89.8405C79.099 91.3525 79.6951 93.6069 81.2394 94.5314Z" fill="#A99473"/>
<path fill-rule="evenodd" clip-rule="evenodd" d="M83.8648 88.4555C82.621 87.7108 81.0373 88.5092 80.178 89.9446C79.7567 90.6482 79.6418 91.5046 79.7936 92.2828C79.9453 93.0611 80.3617 93.7508 80.9897 94.1268C82.2371 94.8736 83.8967 94.1141 84.7531 92.6836C85.1733 91.9818 85.2703 91.1151 85.0997 90.3245C84.9291 89.5337 84.4934 88.8318 83.8648 88.4555ZM80.0042 89.8405C80.8969 88.3494 82.5984 87.4421 83.9773 88.2676C84.6601 88.6764 85.1219 89.43 85.3019 90.2641C85.4819 91.0985 85.3828 92.0263 84.9269 92.7877C84.0314 94.2835 82.2526 95.1381 80.8773 94.3147C80.194 93.9056 79.7511 93.1627 79.5905 92.339C79.4299 91.5152 79.5495 90.6001 80.0042 89.8405Z" fill="#313131"/>
<path d="M124.116 122.593C121.804 121.806 119.535 123.213 118.815 125.327C118.096 127.442 119.71 130.171 122.021 130.958C124.333 131.745 126.466 130.291 127.186 128.177C127.906 126.063 126.427 123.38 124.116 122.593Z" fill="#A99473"/>
<path d="M40.1092 139.575C38.8361 141.659 39.7135 144.18 41.6194 145.345C43.5253 146.509 46.5411 145.531 47.8142 143.447C49.0873 141.364 48.1356 138.964 46.2297 137.799C44.3238 136.635 41.3823 137.492 40.1092 139.575Z" fill="#D1B893"/>
<path d="M158.579 59.9886C155.581 56.8384 150.84 57.1854 147.958 59.9271C145.077 62.6687 145.37 68.3074 148.367 71.4576C151.364 74.6078 155.931 74.0768 158.812 71.3351C161.694 68.5935 161.576 63.1389 158.579 59.9886Z" fill="#D1B893"/>
<path fill-rule="evenodd" clip-rule="evenodd" d="M48.1602 144.239C49.3461 142.298 48.4752 140.041 46.6577 138.931C45.7766 138.392 44.6395 138.313 43.558 138.627C42.4774 138.941 41.4778 139.641 40.877 140.625C39.6853 142.575 40.498 144.95 42.3051 146.055C43.1817 146.59 44.3343 146.643 45.4373 146.299C46.539 145.955 47.5588 145.223 48.1602 144.239ZM46.9154 138.509C48.9097 139.728 49.9423 142.27 48.582 144.497C47.9103 145.596 46.7857 146.396 45.5847 146.771C44.3851 147.145 43.0768 147.105 42.0474 146.476C40.0427 145.251 39.1006 142.584 40.4552 140.367C41.1275 139.267 42.2351 138.497 43.4201 138.153C44.604 137.809 45.8906 137.883 46.9154 138.509Z" fill="#313131"/>
<path fill-rule="evenodd" clip-rule="evenodd" d="M146.706 71.8212C149.588 74.8503 153.995 74.3603 156.802 71.69C158.182 70.3772 158.856 68.401 158.813 66.3542C158.77 64.3084 158.011 62.2184 156.559 60.6929C153.67 57.6559 149.086 57.9782 146.288 60.64C144.912 61.9492 144.279 63.9673 144.365 66.063C144.45 68.1571 145.253 70.2949 146.706 71.8212ZM157.142 72.0481C154.186 74.8611 149.46 75.4333 146.348 72.1619C144.803 70.5379 143.961 68.2813 143.871 66.0831C143.781 63.8865 144.442 61.7145 145.947 60.282C148.913 57.4605 153.812 57.0887 156.917 60.3522C158.463 61.977 159.262 64.1894 159.307 66.3438C159.352 68.4973 158.644 70.6193 157.142 72.0481Z" fill="#313131"/>
<path d="M49.0569 131.671C48.291 132.924 48.8189 134.441 49.9655 135.142C51.1122 135.842 53.2643 136.083 54.0302 134.83C54.7961 133.576 53.8859 131.303 52.7392 130.602C51.5926 129.902 49.8229 130.417 49.0569 131.671Z" fill="#A99473"/>
<path d="M154.91 62.2047C154.406 61.675 153.608 61.7333 153.124 62.1943C152.639 62.6554 152.246 63.659 152.75 64.1887C153.254 64.7184 154.464 64.5737 154.949 64.1126C155.433 63.6516 155.414 62.7344 154.91 62.2047Z" fill="#A99473"/>
<path fill-rule="evenodd" clip-rule="evenodd" d="M54.3134 133.508C54.0497 132.73 53.5638 132.044 53.0559 131.734C52.5543 131.427 51.9 131.378 51.2697 131.561C50.6404 131.744 50.0605 132.152 49.7133 132.72C49.0288 133.84 49.492 135.211 50.5398 135.852C51.0724 136.177 51.8512 136.4 52.5833 136.392C53.3188 136.384 53.945 136.145 54.2648 135.622C54.5927 135.085 54.5779 134.29 54.3134 133.508ZM54.7815 133.35C55.0673 134.194 55.1246 135.162 54.6866 135.879C54.2405 136.609 53.4076 136.877 52.5889 136.886C51.7668 136.896 50.8963 136.649 50.2822 136.273C49.0367 135.512 48.4441 133.849 49.2915 132.462C49.7102 131.777 50.3982 131.3 51.1318 131.087C51.8645 130.874 52.6684 130.918 53.3135 131.312C53.9523 131.702 54.4948 132.503 54.7815 133.35Z" fill="#313131"/>
<path fill-rule="evenodd" clip-rule="evenodd" d="M153.341 64.371C153.731 64.3458 154.092 64.2067 154.278 64.0291C154.46 63.8566 154.559 63.5849 154.553 63.285C154.547 62.9862 154.435 62.6857 154.23 62.4705C153.834 62.054 153.195 62.0876 152.794 62.4688C152.586 62.6664 152.39 62.9913 152.306 63.3224C152.22 63.6569 152.26 63.9366 152.429 64.1138C152.608 64.3021 152.948 64.3965 153.341 64.371ZM153.373 64.8643C152.914 64.894 152.396 64.7959 152.071 64.4545C151.736 64.1019 151.721 63.615 151.827 63.2C151.934 62.7816 152.176 62.3742 152.453 62.1107C153.022 61.5699 153.977 61.4868 154.589 62.1298C154.888 62.4443 155.038 62.8672 155.047 63.2747C155.055 63.6811 154.922 64.0986 154.619 64.3871C154.321 64.6705 153.835 64.8343 153.373 64.8643Z" fill="#313131"/>
<path d="M94.2541 28.0793C93.0347 27.6642 91.8317 28.4246 91.4454 29.5594C91.059 30.6943 91.9044 32.1519 93.1238 32.5671C94.3433 32.9822 95.4751 32.1976 95.8614 31.0627C96.2477 29.9279 95.4736 28.4945 94.2541 28.0793Z" fill="#A99473"/>
<path d="M132.708 120.412C131.399 120.044 130.012 120.948 129.494 122.202C128.976 123.456 129.788 124.977 131.097 125.344C132.406 125.712 133.717 124.786 134.235 123.532C134.753 122.278 134.017 120.779 132.708 120.412Z" fill="#A99473"/>
<path d="M28.2261 66.8733C27.3147 68.5662 28.1332 70.7593 29.7037 71.8619C31.2741 72.9644 33.6235 72.3139 34.5349 70.621C35.4463 68.928 34.5746 66.8338 33.0041 65.7312C31.4336 64.6287 29.1375 65.1803 28.2261 66.8733Z" fill="#A99473"/>
<path fill-rule="evenodd" clip-rule="evenodd" d="M33.3448 70.2775C34.1684 68.7477 33.4026 66.8028 31.8991 65.7473C31.1764 65.2399 30.2755 65.1068 29.4408 65.3066C28.6061 65.5064 27.8604 66.0339 27.4405 66.8137C26.6121 68.3525 27.3398 70.3945 28.833 71.4428C29.5516 71.9473 30.4632 72.0592 31.3134 71.8352C32.1636 71.6113 32.9243 71.0586 33.3448 70.2775ZM32.1334 65.3121C33.7709 66.4617 34.7486 68.7053 33.7493 70.5615C33.2585 71.4733 32.3888 72.0923 31.4438 72.3412C30.4989 72.5901 29.4505 72.476 28.5987 71.878C26.951 70.7212 26.0416 68.3768 27.036 66.5298C27.5275 65.6167 28.3855 65.0219 29.3194 64.7983C30.2533 64.5747 31.2857 64.717 32.1334 65.3121Z" fill="#313131"/>
<path fill-rule="evenodd" clip-rule="evenodd" d="M122.596 130.845C124.435 131.471 126.283 129.988 127.002 127.875C127.355 126.84 127.263 125.69 126.844 124.716C126.425 123.742 125.685 122.958 124.757 122.642C122.912 122.014 120.954 123.467 120.237 125.573C119.886 126.606 120.004 127.764 120.451 128.749C120.898 129.733 121.667 130.528 122.596 130.845ZM127.259 127.963C126.512 130.158 124.541 131.815 122.502 131.121C121.492 130.778 120.674 129.922 120.203 128.884C119.731 127.844 119.599 126.606 119.98 125.485C120.73 123.283 122.817 121.673 124.851 122.365C125.861 122.709 126.651 123.556 127.094 124.586C127.537 125.617 127.64 126.845 127.259 127.963Z" fill="#313131"/>
<path fill-rule="evenodd" clip-rule="evenodd" d="M93.3976 32.4947C94.3848 32.8307 95.3765 32.0348 95.7626 30.9009C95.9518 30.3449 95.9026 29.7277 95.6778 29.2051C95.453 28.6824 95.0558 28.2614 94.5573 28.0917C93.5673 27.7547 92.5163 28.5346 92.1316 29.6648C91.9428 30.2193 92.0062 30.841 92.2461 31.3695C92.486 31.8981 92.8987 32.3248 93.3976 32.4947ZM95.9005 30.9478C95.4995 32.1259 94.4414 33.0156 93.3471 32.6431C92.8052 32.4586 92.3663 31.9996 92.1132 31.442C91.86 30.8842 91.7889 30.2194 91.9936 29.6178C92.396 28.436 93.5163 27.5717 94.6078 27.9433C95.1501 28.1279 95.5741 28.5823 95.812 29.1354C96.0499 29.6887 96.1048 30.3477 95.9005 30.9478Z" fill="#313131"/>
<path fill-rule="evenodd" clip-rule="evenodd" d="M131.34 124.735C132.538 125.071 133.741 124.275 134.21 123.141C134.439 122.585 134.38 121.968 134.107 121.445C133.834 120.922 133.352 120.501 132.747 120.332C131.546 119.995 130.27 120.775 129.804 121.905C129.575 122.459 129.651 123.081 129.943 123.609C130.234 124.138 130.735 124.565 131.34 124.735ZM134.377 123.188C133.89 124.366 132.607 125.256 131.279 124.883C130.621 124.699 130.088 124.24 129.781 123.682C129.474 123.124 129.388 122.459 129.636 121.858C130.124 120.676 131.484 119.812 132.808 120.183C133.466 120.368 133.981 120.822 134.27 121.375C134.558 121.929 134.625 122.588 134.377 123.188Z" fill="#313131"/>
<path fill-rule="evenodd" clip-rule="evenodd" d="M64.9892 113.938C63.7234 113.783 61.7681 113.65 58.7515 113.946L58.7368 113.398C61.7651 113.102 63.7314 113.235 65.0075 113.391C65.3579 113.434 65.6483 113.477 65.8955 113.514C66.1056 113.546 66.2846 113.572 66.4425 113.59C66.6098 113.609 66.7407 113.616 66.8443 113.607C66.949 113.597 67.0158 113.572 67.0595 113.537L67.1687 114.044C67.0807 114.113 66.976 114.143 66.8579 114.154C66.7387 114.165 66.5955 114.156 66.4256 114.137C66.2734 114.12 66.0888 114.093 65.8731 114.061C65.6204 114.023 65.3251 113.979 64.9892 113.938Z" fill="#313131"/>
<path fill-rule="evenodd" clip-rule="evenodd" d="M58.8441 113.362C61.7962 113.126 63.7157 113.232 64.964 113.357C65.306 113.391 65.5895 113.426 65.8297 113.455L65.83 113.455C66.0349 113.48 66.2064 113.501 66.3573 113.514C66.5179 113.529 66.6355 113.534 66.7238 113.527C66.8123 113.521 66.8521 113.504 66.8701 113.493C66.9023 113.472 66.9454 113.466 66.984 113.478C67.0226 113.489 67.0513 113.516 67.06 113.548L67.166 113.95C67.1756 113.986 67.159 114.024 67.1233 114.047C67.0134 114.118 66.8865 114.145 66.7584 114.155C66.6302 114.164 66.4814 114.156 66.3143 114.141C66.1643 114.127 65.9832 114.105 65.7751 114.08L65.7732 114.08C65.5276 114.05 65.2421 114.015 64.9173 113.983C63.6953 113.861 61.804 113.756 58.8816 113.989C58.8487 113.992 58.816 113.983 58.7913 113.966C58.7665 113.948 58.752 113.922 58.7511 113.895L58.7368 113.462C58.7351 113.411 58.782 113.367 58.8441 113.362ZM58.9776 113.547L58.9855 113.786C61.8543 113.564 63.7259 113.669 64.9462 113.79C65.2742 113.823 65.5624 113.858 65.8077 113.888L65.8082 113.888C66.0185 113.913 66.1955 113.935 66.3409 113.948C66.504 113.963 66.6335 113.969 66.737 113.961C66.8076 113.956 66.8663 113.945 66.916 113.925L66.8581 113.706C66.8235 113.713 66.7859 113.718 66.7452 113.721C66.6322 113.729 66.4952 113.722 66.3307 113.707C66.1751 113.693 65.9995 113.672 65.7966 113.647L65.7949 113.647C65.5547 113.618 65.2739 113.583 64.9351 113.55C63.7186 113.428 61.8488 113.324 58.9776 113.547Z" fill="#313131"/>
<path fill-rule="evenodd" clip-rule="evenodd" d="M83.7267 119.559C82.4608 119.404 80.5056 119.271 77.4889 119.567L77.4742 119.019C80.5025 118.723 82.4688 118.856 83.745 119.012C84.0953 119.055 84.3857 119.098 84.6329 119.135C84.8431 119.167 85.022 119.193 85.1799 119.211C85.3472 119.23 85.4782 119.237 85.5818 119.228C85.6865 119.218 85.7533 119.193 85.797 119.158L85.9062 119.665C85.8181 119.734 85.7134 119.764 85.5953 119.775C85.4761 119.786 85.3329 119.777 85.1631 119.758C85.0108 119.741 84.8262 119.714 84.6105 119.682C84.3579 119.644 84.0626 119.6 83.7267 119.559Z" fill="#313131"/>
<path fill-rule="evenodd" clip-rule="evenodd" d="M77.5816 118.983C80.5336 118.747 82.4532 118.853 83.7014 118.978C84.0435 119.012 84.327 119.046 84.5671 119.076L84.5674 119.076C84.7723 119.101 84.9439 119.122 85.0948 119.135C85.2554 119.15 85.3729 119.155 85.4613 119.148C85.5498 119.142 85.5895 119.125 85.6075 119.114C85.6398 119.093 85.6828 119.087 85.7214 119.099C85.76 119.11 85.7888 119.137 85.7974 119.169L85.9035 119.571C85.9131 119.607 85.8965 119.645 85.8608 119.668C85.7508 119.738 85.624 119.766 85.4958 119.775C85.3677 119.785 85.2188 119.777 85.0518 119.762C84.9017 119.748 84.7206 119.726 84.5125 119.701L84.5106 119.701C84.2651 119.671 83.9795 119.636 83.6547 119.604C82.4327 119.482 80.5414 119.377 77.619 119.61C77.5862 119.613 77.5535 119.604 77.5287 119.587C77.504 119.569 77.4894 119.543 77.4885 119.516L77.4743 119.082C77.4726 119.032 77.5194 118.988 77.5816 118.983ZM77.7151 119.168L77.7229 119.407C80.5917 119.185 82.4633 119.29 83.6836 119.411C84.0116 119.444 84.2998 119.479 84.5452 119.509L84.5456 119.509C84.7559 119.534 84.933 119.556 85.0784 119.569C85.2415 119.584 85.3709 119.59 85.4744 119.582C85.5451 119.577 85.6037 119.566 85.6535 119.546L85.5955 119.327C85.561 119.334 85.5234 119.339 85.4827 119.342C85.3697 119.35 85.2327 119.343 85.0682 119.328C84.9125 119.314 84.7369 119.293 84.534 119.268L84.5323 119.268C84.2921 119.238 84.0113 119.204 83.6725 119.17C82.456 119.049 80.5862 118.945 77.7151 119.168Z" fill="#313131"/>
<path fill-rule="evenodd" clip-rule="evenodd" d="M119.561 86.5996C118.367 86.5168 116.547 86.5717 114.035 86.9045L114.013 86.3923C116.531 86.0587 118.364 86.0025 119.573 86.0864C120.176 86.1282 120.629 86.2052 120.935 86.302C121.087 86.3501 121.21 86.4051 121.299 86.4685C121.343 86.4999 121.386 86.5383 121.421 86.5877C121.455 86.6349 121.499 86.7168 121.508 86.8387L121.214 86.9024C121.218 86.9549 121.232 86.9823 121.236 86.9877C121.235 86.9876 121.235 86.9874 121.235 86.9873C121.231 86.9817 121.217 86.9657 121.186 86.9437C121.125 86.9003 121.026 86.8529 120.882 86.8073C120.595 86.7167 120.158 86.641 119.561 86.5996ZM121.236 86.9886C121.236 86.9886 121.236 86.9883 121.236 86.9877C121.236 86.9883 121.236 86.9886 121.236 86.9886Z" fill="#313131"/>
<path fill-rule="evenodd" clip-rule="evenodd" d="M73.187 24.5278C74.2916 24.4967 75.9328 24.4506 78.3666 24.2179L78.411 24.4309C75.9605 24.6653 74.3037 24.7118 73.199 24.7428C72.9835 24.7489 72.7891 24.7543 72.6139 24.7605C72.0689 24.7796 71.7369 24.8052 71.5297 24.865C71.4323 24.8932 71.37 24.9271 71.3266 24.9685C71.2821 25.0109 71.2492 25.0692 71.23 25.1548L70.9159 25.1225C70.9397 25.0162 70.9852 24.9225 71.0677 24.8439C71.1513 24.7641 71.2648 24.7077 71.4051 24.6671C71.6735 24.5896 72.0649 24.5643 72.5975 24.5456C72.7746 24.5394 72.9705 24.5339 73.187 24.5278Z" fill="#313131"/>
<path fill-rule="evenodd" clip-rule="evenodd" d="M78.2382 24.2183C78.2983 24.2136 78.3532 24.2467 78.3655 24.2951L78.4085 24.4641C78.4154 24.4911 78.4079 24.5192 78.3879 24.5414C78.3679 24.5636 78.3373 24.5778 78.3037 24.5805C75.9269 24.7665 74.3194 24.8035 73.2486 24.8281C73.0399 24.8329 72.8521 24.8372 72.6829 24.8421C72.1514 24.8574 71.8455 24.8778 71.6618 24.9212C71.5783 24.941 71.5375 24.9619 71.514 24.9803C71.4909 24.9982 71.4688 25.026 71.4543 25.0789C71.4412 25.1269 71.3863 25.1593 71.3265 25.1543L71.0224 25.1287C70.9887 25.1259 70.9581 25.1114 70.9383 25.0889C70.9185 25.0664 70.9114 25.038 70.9188 25.011C70.9459 24.9118 70.9996 24.8191 71.0996 24.741C71.1991 24.6633 71.3286 24.6126 71.4752 24.5779C71.7519 24.5124 72.1464 24.4925 72.6587 24.4778C72.8306 24.4728 73.0206 24.4684 73.23 24.4636C74.2988 24.439 75.8853 24.4025 78.2382 24.2183ZM71.3977 24.8079C71.3431 24.8293 71.2987 24.8538 71.2632 24.8815C71.237 24.9019 71.2157 24.9241 71.1985 24.9484L71.2553 24.9532C71.2787 24.9087 71.3102 24.8712 71.3504 24.8398C71.365 24.8284 71.3808 24.8178 71.3977 24.8079Z" fill="#313131"/>
<path fill-rule="evenodd" clip-rule="evenodd" d="M65.0187 48.1459C66.4284 48.2459 68.4313 48.2552 70.9107 48.2186L70.9159 48.5567C68.4365 48.5933 66.4199 48.5843 64.9934 48.4832C64.2813 48.4327 63.7074 48.3587 63.2938 48.253C63.0873 48.2002 62.9121 48.1375 62.7774 48.0607C62.6444 47.9849 62.531 47.8839 62.484 47.7465L62.8136 47.6395C62.8229 47.6666 62.855 47.713 62.953 47.7689C63.0493 47.8238 63.1905 47.877 63.382 47.9259C63.7643 48.0236 64.3127 48.0959 65.0187 48.1459Z" fill="#313131"/>
<path fill-rule="evenodd" clip-rule="evenodd" d="M63.0347 47.7027C63.0126 47.6542 62.9473 47.6282 62.8865 47.6443L62.5662 47.7291C62.5359 47.7371 62.5108 47.7547 62.4965 47.778C62.4823 47.8012 62.4801 47.8282 62.4904 47.8528C62.5496 47.9939 62.6885 48.0894 62.8292 48.1548C62.9731 48.2218 63.1548 48.2741 63.3604 48.317C63.7729 48.403 64.339 48.4621 65.0332 48.5023C66.425 48.5828 68.3893 48.5898 70.7987 48.5608C70.8303 48.5604 70.8604 48.5498 70.8823 48.5313C70.9043 48.5129 70.9164 48.488 70.9159 48.4623L70.9108 48.1942C70.9098 48.1406 70.8557 48.0979 70.7901 48.0987C68.3807 48.1277 66.4389 48.1202 65.0745 48.0413C64.3906 48.0017 63.8661 47.9449 63.5051 47.8696C63.324 47.8319 63.1982 47.7923 63.1177 47.7549C63.0526 47.7246 63.0366 47.705 63.0347 47.7027ZM62.7777 47.8771C62.8194 47.9173 62.8768 47.9535 62.947 47.9862C63.0649 48.041 63.2237 48.0882 63.4193 48.1289C63.8108 48.2105 64.36 48.2687 65.05 48.3086C66.4078 48.3872 68.3214 48.3955 70.6762 48.3681L70.6748 48.2941C68.32 48.3215 66.4105 48.3131 65.0577 48.2349C64.3696 48.1951 63.8282 48.1373 63.4462 48.0577C63.2551 48.0179 63.1064 47.9731 62.9998 47.9235C62.9488 47.8997 62.9084 47.8754 62.8778 47.8506L62.7777 47.8771Z" fill="#313131"/>
<path d="M95.2748 72.4673C95.2748 68.5866 92.3386 65.4407 88.7167 65.4407C85.0947 65.4407 82.1585 68.5866 82.1585 72.4673C82.1585 76.348 85.0947 79.4939 88.7167 79.4939C92.3386 79.4939 95.2748 76.348 95.2748 72.4673Z" fill="#A99473"/>
<path d="M97.1489 30.3076C97.1489 28.4966 95.8905 27.0285 94.3383 27.0285C92.786 27.0285 91.5276 28.4966 91.5276 30.3076C91.5276 32.1186 92.786 33.5867 94.3383 33.5867C95.8905 33.5867 97.1489 32.1186 97.1489 30.3076Z" fill="#A99473"/>
<path fill-rule="evenodd" clip-rule="evenodd" d="M84.5045 72.4674C84.5045 75.5546 87.2126 78.0864 90.5907 78.0864C93.9687 78.0864 96.6768 75.5546 96.6768 72.4674C96.6768 69.3802 93.9687 66.8484 90.5907 66.8484C87.2126 66.8484 84.5045 69.3802 84.5045 72.4674ZM90.5907 78.5571C86.9855 78.5571 84.0325 75.8468 84.0325 72.4674C84.0325 69.088 86.9855 66.3777 90.5907 66.3777C94.1959 66.3777 97.1489 69.088 97.1489 72.4674C97.1489 75.8468 94.1959 78.5571 90.5907 78.5571Z" fill="#313131"/>
<path fill-rule="evenodd" clip-rule="evenodd" d="M91.0461 29.8393C91.0461 31.1115 92.276 32.1995 93.8695 32.1995C95.4631 32.1995 96.693 31.1115 96.693 29.8393C96.693 28.5671 95.4631 27.479 93.8695 27.479C92.276 27.479 91.0461 28.5671 91.0461 29.8393ZM93.8695 32.6499C92.0927 32.6499 90.5904 31.4229 90.5904 29.8393C90.5904 28.2557 92.0927 27.0286 93.8695 27.0286C95.6463 27.0286 97.1486 28.2557 97.1486 29.8393C97.1486 31.4229 95.6463 32.6499 93.8695 32.6499Z" fill="#313131"/>
</svg>
